<?xml version="1.0" encoding="UTF-8"?>
<svg width="14px" height="15px" viewBox="0 0 14 15" version="1.1" xmlns="http://www.w3.org/2000/svg" xmlns:xlink="http://www.w3.org/1999/xlink">
    <!-- Generator: Sketch 47.1 (45422) - http://www.bohemiancoding.com/sketch -->
    <title></title>
    <desc>Created with Sketch.</desc>
    <defs></defs>
    <g id="Symbols" stroke="none" stroke-width="1" fill="none" fill-rule="evenodd">
        <g id="Property-Cards/-RESI-/-Mobile" transform="translate(-60.000000, -290.000000)" fill="#697684">
            <path d="M61.0310748,298.796875 C61.0760539,299.14974 61.169862,299.483071 61.3125,299.796875 C61.5208344,300.255211 61.8072898,300.65104 62.171875,300.984375 C62.5364602,301.31771 62.9687475,301.57552 63.46875,301.757812 C63.9687525,301.940105 64.5104137,302.03125 65.09375,302.03125 L68.15625,302.03125 C68.750003,302.03125 69.2942684,301.940105 69.7890625,301.757812 C70.2838566,301.57552 70.7135398,301.31771 71.078125,300.984375 C71.4427102,300.65104 71.7291656,300.255211 71.9375,299.796875 C72.080138,299.483071 72.1739461,299.14974 72.2189252,298.796875 L61.0310748,298.796875 L61.0310748,298.796875 Z M68.15625,303.03125 L65.09375,303.03125 C64.3749964,303.03125 63.7057323,302.914064 63.0859375,302.679688 C62.4661427,302.445311 61.9270856,302.11719 61.46875,301.695312 C61.0104144,301.273435 60.651043,300.77344 60.390625,300.195312 C60.130207,299.617185 60,298.984378 60,298.296875 C60,298.161458 60.0494787,298.044271 60.1484375,297.945312 C60.2473963,297.846354 60.3645827,297.796875 60.5,297.796875 L72.75,297.796875 C72.8854173,297.796875 73.0026037,297.846354 73.1015625,297.945312 C73.2005213,298.044271 73.25,298.161458 73.25,298.296875 C73.25,298.984378 73.119793,299.617185 72.859375,300.195312 C72.598957,300.77344 72.2395856,301.273435 71.78125,301.695312 C71.3229144,302.11719 70.7838573,302.445311 70.1640625,302.679688 C69.5442677,302.914064 68.8750036,303.03125 68.15625,303.03125 Z M67.171875,291.75 C67.098958,291.864584 66.9973965,291.942708 66.8671875,291.984375 C66.7369785,292.026042 66.6093756,292.015625 66.484375,291.953125 C66.3697911,291.880208 66.2916669,291.778646 66.25,291.648438 C66.2083331,291.518229 66.223958,291.390626 66.296875,291.265625 C66.5364595,290.817706 66.8828102,290.494793 67.3359375,290.296875 C67.7890648,290.098957 68.3333302,290 68.96875,290 L69.109375,290 C69.9427125,290 70.6588512,290.276039 71.2578125,290.828125 C71.8567738,291.380211 72.15625,292.052079 72.15625,292.84375 L72.15625,298.296875 C72.15625,298.432292 72.1067713,298.549479 72.0078125,298.648438 C71.9088537,298.747396 71.7916673,298.796875 71.65625,298.796875 C71.5208327,298.796875 71.4036463,298.747396 71.3046875,298.648438 C71.2057287,298.549479 71.15625,298.432292 71.15625,298.296875 L71.15625,292.84375 C71.15625,292.343748 70.9557312,291.91146 70.5546875,291.546875 C70.1536438,291.18229 69.6718778,291 69.109375,291 L68.96875,291 C68.4895809,291 68.1041681,291.059895 67.8125,291.179688 C67.5208319,291.29948 67.3072923,291.489582 67.171875,291.75 Z M64.9123929,293.34375 L68.2594821,293.34375 C68.1807761,293.073448 68.0343866,292.831262 67.8203125,292.617188 C67.4817691,292.278644 67.0677108,292.109375 66.578125,292.109375 C66.0989559,292.109375 65.6901059,292.278644 65.3515625,292.617188 C65.1374884,292.831262 64.9910989,293.073448 64.9123929,293.34375 L64.9123929,293.34375 Z M63.84375,293.84375 C63.84375,293.093746 64.1119765,292.450524 64.6484375,291.914062 C65.1848985,291.377601 65.8281212,291.109375 66.578125,291.109375 C67.3385455,291.109375 67.9869765,291.377601 68.5234375,291.914062 C69.0598985,292.450524 69.328125,293.093746 69.328125,293.84375 C69.328125,293.989584 69.2786463,294.109375 69.1796875,294.203125 C69.0807287,294.296875 68.9635423,294.34375 68.828125,294.34375 L64.34375,294.34375 C64.2083327,294.34375 64.0911463,294.296875 63.9921875,294.203125 C63.8932287,294.109375 63.84375,293.989584 63.84375,293.84375 Z M69.734375,302.5625 C69.661458,302.437499 69.643229,302.309896 69.6796875,302.179688 C69.716146,302.049479 69.7916661,301.947917 69.90625,301.875 C70.0208339,301.802083 70.1458327,301.78125 70.28125,301.8125 C70.4166673,301.84375 70.520833,301.921874 70.59375,302.046875 L71.40625,303.390625 C71.479167,303.515626 71.497396,303.643229 71.4609375,303.773438 C71.424479,303.903646 71.3489589,304.005208 71.234375,304.078125 C71.1093744,304.151042 70.9817715,304.171875 70.8515625,304.140625 C70.7213535,304.109375 70.619792,304.031251 70.546875,303.90625 L69.734375,302.5625 Z M62.421875,302.046875 C62.494792,301.921874 62.5989577,301.84375 62.734375,301.8125 C62.8697923,301.78125 62.9947911,301.802083 63.109375,301.875 C63.2343756,301.947917 63.3124998,302.049479 63.34375,302.179688 C63.3750002,302.309896 63.354167,302.437499 63.28125,302.5625 L62.46875,303.90625 C62.4062497,304.031251 62.3072923,304.109375 62.171875,304.140625 C62.0364577,304.171875 61.9062506,304.151042 61.78125,304.078125 C61.6666661,304.005208 61.5937502,303.903646 61.5625,303.773438 C61.5312498,303.643229 61.552083,303.515626 61.625,303.390625 L62.421875,302.046875 Z" id=""></path>
        </g>
    </g>
</svg>