<?xml version="1.0" encoding="UTF-8"?>
<svg width="15px" height="14px" viewBox="0 0 15 14" version="1.1" xmlns="http://www.w3.org/2000/svg" xmlns:xlink="http://www.w3.org/1999/xlink">
    <!-- Generator: Sketch 47.1 (45422) - http://www.bohemiancoding.com/sketch -->
    <title></title>
    <desc>Created with Sketch.</desc>
    <defs></defs>
    <g id="Symbols" stroke="none" stroke-width="1" fill="none" fill-rule="evenodd">
        <g id="Property-Cards/-RESI-/-Mobile" transform="translate(-17.000000, -291.000000)" fill="#697684">
            <path d="M17.9471514,302.59375 C17.9471514,302.458333 17.9914218,302.346355 18.0799639,302.257812 C18.168506,302.16927 18.280484,302.125 18.4159014,302.125 C18.540902,302.125 18.6476718,302.16927 18.7362139,302.257812 C18.824756,302.346355 18.8690264,302.458333 18.8690264,302.59375 L18.8690264,303.8125 C18.8690264,303.937501 18.824756,304.04427 18.7362139,304.132812 C18.6476718,304.221355 18.540902,304.265625 18.4159014,304.265625 C18.280484,304.265625 18.168506,304.221355 18.0799639,304.132812 C17.9914218,304.04427 17.9471514,303.937501 17.9471514,303.8125 L17.9471514,302.59375 Z M29.1502764,302.59375 C29.1502764,302.458333 29.1971509,302.346355 29.2909014,302.257812 C29.3846518,302.16927 29.4940258,302.125 29.6190264,302.125 C29.7544437,302.125 29.8664218,302.16927 29.9549639,302.257812 C30.043506,302.346355 30.0877764,302.458333 30.0877764,302.59375 L30.0877764,303.8125 C30.0877764,303.937501 30.043506,304.04427 29.9549639,304.132812 C29.8664218,304.221355 29.7544437,304.265625 29.6190264,304.265625 C29.4940258,304.265625 29.3846518,304.221355 29.2909014,304.132812 C29.1971509,304.04427 29.1502764,303.937501 29.1502764,303.8125 L29.1502764,302.59375 Z M30.0877764,299.78125 C30.0877764,299.656249 30.1346509,299.546875 30.2284014,299.453125 C30.3221518,299.359375 30.4315258,299.3125 30.5565264,299.3125 C30.6919437,299.3125 30.8039218,299.359375 30.8924639,299.453125 C30.981006,299.546875 31.0252764,299.656249 31.0252764,299.78125 L31.0252764,301.703125 C31.0252764,302.078127 30.8950693,302.398436 30.6346514,302.664062 C30.3742334,302.929689 30.0617365,303.0625 29.6971514,303.0625 L18.3377764,303.0625 C17.9731912,303.0625 17.6606943,302.929689 17.4002764,302.664062 C17.1398584,302.398436 17.0096514,302.078127 17.0096514,301.703125 L17.0096514,299.78125 C17.0096514,299.656249 17.0539218,299.546875 17.1424639,299.453125 C17.231006,299.359375 17.342984,299.3125 17.4784014,299.3125 C17.603402,299.3125 17.7127759,299.359375 17.8065264,299.453125 C17.9002768,299.546875 17.9471514,299.656249 17.9471514,299.78125 L17.9471514,301.703125 C17.9471514,301.817709 17.9862135,301.916666 18.0643389,302 C18.1424643,302.083334 18.2336092,302.125 18.3377764,302.125 L29.6971514,302.125 C29.8013186,302.125 29.8924635,302.083334 29.9705889,302 C30.0487143,301.916666 30.0877764,301.817709 30.0877764,301.703125 L30.0877764,299.78125 Z M28.1971514,293.46875 L27.9784014,292.890625 C27.8846509,292.630207 27.7023611,292.406251 27.4315264,292.21875 C27.1606917,292.031249 26.8898611,291.9375 26.6190264,291.9375 L21.4159014,291.9375 C21.1450667,291.9375 20.8742361,292.031249 20.6034014,292.21875 C20.3325667,292.406251 20.1450686,292.630207 20.0409014,292.890625 L19.8377764,293.46875 C19.8065262,293.552084 19.8013179,293.609375 19.8221514,293.640625 C19.8429848,293.671875 19.8950676,293.6875 19.9784014,293.6875 L28.0565264,293.6875 C28.1398601,293.6875 28.1919429,293.671875 28.2127764,293.640625 C28.2336098,293.609375 28.2284015,293.552084 28.1971514,293.46875 Z M29.0721514,293.15625 C29.2179854,293.541669 29.1867358,293.880207 28.9784014,294.171875 C28.770067,294.463543 28.4627784,294.609375 28.0565264,294.609375 L19.9784014,294.609375 C19.5721493,294.609375 19.2648608,294.463543 19.0565264,294.171875 C18.848192,293.880207 18.8169423,293.541669 18.9627764,293.15625 L19.1659014,292.5625 C19.3325689,292.124998 19.6320451,291.75521 20.0643389,291.453125 C20.4966327,291.15104 20.947149,291 21.4159014,291 L26.6190264,291 C27.0877787,291 27.5382951,291.15104 27.9705889,291.453125 C28.4028827,291.75521 28.7023589,292.124998 28.8690264,292.5625 L29.0721514,293.15625 Z M28.1502764,294.609375 C28.0981928,294.484374 28.0955886,294.36198 28.1424639,294.242188 C28.1893391,294.122395 28.2752758,294.041667 28.4002764,294 C28.5148603,293.947916 28.6320466,293.945312 28.7518389,293.992188 C28.8716311,294.039063 28.9575678,294.124999 29.0096514,294.25 L30.9315264,298.84375 C31.0877772,299.208335 31.066944,299.533853 30.8690264,299.820312 C30.6711087,300.106772 30.3690284,300.25 29.9627764,300.25 L18.0721514,300.25 C17.6658993,300.25 17.363819,300.106772 17.1659014,299.820312 C16.9679837,299.533853 16.9471506,299.208335 17.1034014,298.84375 L19.0096514,294.25 C19.061735,294.124999 19.1476716,294.039063 19.2674639,293.992188 C19.3872561,293.945312 19.5044425,293.947916 19.6190264,294 C19.744027,294.041667 19.8299636,294.122395 19.8768389,294.242188 C19.9237141,294.36198 19.9263183,294.484374 19.8846514,294.609375 L17.9627764,299.203125 C17.9419429,299.255209 17.9367347,299.286458 17.9471514,299.296875 C17.9575681,299.307292 17.9992343,299.3125 18.0721514,299.3125 L29.9627764,299.3125 C30.0356934,299.3125 30.0773597,299.307292 30.0877764,299.296875 C30.0981931,299.286458 30.0929848,299.255209 30.0721514,299.203125 L28.1502764,294.609375 Z" id=""></path>
        </g>
    </g>
</svg>