<?xml version="1.0" encoding="UTF-8"?>
<svg width="18px" height="18px" viewBox="0 0 18 18" version="1.1" xmlns="http://www.w3.org/2000/svg" xmlns:xlink="http://www.w3.org/1999/xlink">
    <!-- Generator: Sketch 47.1 (45422) - http://www.bohemiancoding.com/sketch -->
    <title>Imported Layers</title>
    <desc>Created with Sketch.</desc>
    <defs></defs>
    <g id="Symbols" stroke="none" stroke-width="1" fill="none" fill-rule="evenodd">
        <g id="icon-/-carspace" fill="#697684">
            <g id="Imported-Layers">
                <path d="M3.6885,9.578 C4.2435,9.5615 4.7075,10.001 4.724,10.5595 C4.74,11.1185 4.3025,11.584 3.7475,11.6005 C3.192,11.6165 2.7285,11.1775 2.712,10.6185 C2.696,10.06 3.133,9.594 3.6885,9.578 L3.6885,9.578 Z M3.718,8.975 C2.829,8.975 2.109,9.698 2.109,10.589 C2.109,11.4805 2.829,12.2035 3.718,12.2035 C4.6065,12.2035 5.327,11.4805 5.327,10.589 C5.327,9.698 4.6065,8.975 3.718,8.975 L3.718,8.975 Z" id="Fill-1"></path>
                <path d="M14.36,9.5775 C14.9155,9.5775 15.3665,10.03 15.3665,10.589 C15.3665,11.148 14.9155,11.6005 14.36,11.6005 C13.8045,11.6005 13.354,11.148 13.354,10.589 C13.354,10.03 13.8045,9.5775 14.36,9.5775 L14.36,9.5775 Z M14.36,8.975 C13.471,8.975 12.751,9.698 12.751,10.589 C12.751,11.4805 13.471,12.2035 14.36,12.2035 C15.249,12.2035 15.969,11.4805 15.969,10.589 C15.969,9.698 15.249,8.975 14.36,8.975 L14.36,8.975 Z" id="Fill-2"></path>
                <path d="M6.93,10.998 L11.148,10.998 C11.3145,10.998 11.4495,10.863 11.4495,10.697 C11.4495,10.5305 11.3145,10.3955 11.148,10.3955 L6.93,10.3955 C6.7635,10.3955 6.6285,10.5305 6.6285,10.697 C6.6285,10.863 6.7635,10.998 6.93,10.998" id="Fill-3"></path>
                <path d="M16.525,6.9405 L15.6265,3.0025 C15.299,1.3865 14.119,0.1515 11.882,0.1515 L6.26,0.1515 C3.9695,0.1515 2.752,1.3915 2.423,3.0095 L1.5525,6.941 C0.81,7.231 0.3015,7.9355 0.3015,8.7455 L0.3015,12.8525 C0.3015,13.2035 0.4425,13.5415 0.7015,13.794 C0.959,14.045 1.302,14.1805 1.657,14.1805 L1.7325,14.1805 L1.7325,15.696 C1.7325,16.4315 2.3415,17.024 3.0885,17.024 L4.143,17.024 C4.89,17.024 5.4985,16.4315 5.4985,15.696 L5.4985,14.1805 L12.4665,14.1805 L12.4665,15.696 C12.4665,16.4315 13.075,17.024 13.822,17.024 L14.8765,17.024 C15.6235,17.024 16.2325,16.4315 16.2325,15.696 L16.2325,14.1805 L16.421,14.1805 C16.776,14.1805 17.119,14.045 17.3765,13.7945 C17.636,13.5415 17.7765,13.2035 17.7765,12.8525 L17.7765,8.7455 C17.7765,7.935 17.2675,7.2305 16.525,6.9405 L16.525,6.9405 Z M3.0125,3.1345 C3.29,1.7695 4.287,0.754 6.26,0.754 L11.882,0.754 C13.797,0.754 14.76,1.7625 15.0375,3.1295 L15.8845,6.843 C15.8175,6.8605 15.7315,6.8815 15.603,6.9095 C15.2755,6.9805 14.87,7.0515 14.383,7.118 C12.9835,7.3095 11.216,7.425 9.0515,7.425 C6.8865,7.425 5.119,7.3095 3.72,7.118 C3.233,7.0515 2.827,6.9805 2.4995,6.9095 C2.353,6.8775 2.2595,6.8545 2.193,6.836 L3.0125,3.1345 L3.0125,3.1345 Z M4.896,15.696 C4.896,16.095 4.5605,16.4215 4.143,16.4215 L3.0885,16.4215 C2.6705,16.4215 2.335,16.095 2.335,15.696 L2.335,14.1805 L4.896,14.1805 L4.896,15.696 L4.896,15.696 Z M15.63,15.696 C15.63,16.095 15.2945,16.4215 14.8765,16.4215 L13.822,16.4215 C13.4045,16.4215 13.069,16.095 13.069,15.696 L13.069,14.1805 L15.63,14.1805 L15.63,15.696 L15.63,15.696 Z M17.174,12.8525 C17.174,13.042 17.098,13.224 16.956,13.3625 C16.813,13.502 16.621,13.578 16.421,13.578 L1.657,13.578 C1.457,13.578 1.265,13.502 1.1215,13.3625 C0.98,13.224 0.904,13.042 0.904,12.8525 L0.904,8.7455 C0.904,8.1445 1.3105,7.621 1.8945,7.454 L2.0285,7.416 C2.1075,7.4375 2.213,7.464 2.372,7.4985 C2.715,7.5725 3.136,7.6465 3.638,7.715 C5.065,7.9105 6.86,8.0275 9.0515,8.0275 C11.2425,8.0275 13.0375,7.9105 14.4645,7.715 C14.9665,7.6465 15.3875,7.5725 15.7305,7.4985 C15.8815,7.4655 15.983,7.4405 16.062,7.419 L16.1845,7.454 C16.7675,7.621 17.174,8.1445 17.174,8.7455 L17.174,12.8525 L17.174,12.8525 Z" id="Fill-4"></path>
            </g>
        </g>
    </g>
</svg>