<?xml version="1.0" encoding="UTF-8"?>
<svg width="57px" height="19px" viewBox="0 0 57 19" version="1.1" xmlns="http://www.w3.org/2000/svg" xmlns:xlink="http://www.w3.org/1999/xlink">
    <!-- Generator: Sketch 51.2 (57519) - http://www.bohemiancoding.com/sketch -->
    <title>Group</title>
    <desc>Created with Sketch.</desc>
    <defs></defs>
    <g id="Symbols" stroke="none" stroke-width="1" fill="none" fill-rule="evenodd">
        <g id="Header/Phone-(0---500)" transform="translate(-159.000000, -15.000000)">
            <g id="Group" transform="translate(159.000000, 15.000000)">
                <path d="M0,17.6991643 L0,0 L5.97265269,0 C11.4858706,0 15.1103008,3.23398329 15.1103008,8.82451253 C15.1103008,14.4401114 11.4858706,17.6991643 5.97265269,17.6991643 L0,17.6991643 Z M2.52689152,15.5431755 L5.79398359,15.5431755 C9.85232452,15.5431755 12.5068368,13.1866295 12.5068368,8.82451253 C12.5068368,4.48746518 9.82680036,2.15598886 5.79398359,2.15598886 L2.52689152,2.15598886 L2.52689152,15.5431755 Z M18.3518687,2.48189415 L18.3518687,0 L20.8532361,0 L20.8532361,2.48189415 L18.3518687,2.48189415 Z M18.3773929,17.6991643 L18.3773929,5.01392758 L20.8532361,5.01392758 L20.8532361,17.6991643 L18.3773929,17.6991643 Z M25.2689152,13.0612813 L25.2689152,7.1448468 L23.5843209,7.1448468 L23.5843209,5.18941504 L25.3454877,5.18941504 L25.3454877,1.52924791 L27.7447584,1.52924791 L27.7447584,5.18941504 L30.8587056,5.18941504 L30.8587056,7.1448468 L27.7447584,7.1448468 L27.7447584,12.7855153 C27.7447584,15.3175487 29.5569736,15.643454 30.5013674,15.643454 C30.8587056,15.643454 31.088423,15.5933148 31.088423,15.5933148 L31.088423,17.7493036 C31.088423,17.7493036 30.7310848,17.7994429 30.2206016,17.7994429 C28.5615314,17.7994429 25.2689152,17.2980501 25.2689152,13.0612813 Z M34.4065634,13.0612813 L34.4065634,7.1448468 L32.721969,7.1448468 L32.721969,5.18941504 L34.4831358,5.18941504 L34.4831358,1.52924791 L36.8824066,1.52924791 L36.8824066,5.18941504 L39.9963537,5.18941504 L39.9963537,7.1448468 L36.8824066,7.1448468 L36.8824066,12.7855153 C36.8824066,15.3175487 38.6946217,15.643454 39.6390155,15.643454 C39.9963537,15.643454 40.2260711,15.5933148 40.2260711,15.5933148 L40.2260711,17.7493036 C40.2260711,17.7493036 39.8687329,17.7994429 39.3582498,17.7994429 C37.6991796,17.7994429 34.4065634,17.2980501 34.4065634,13.0612813 Z M42.0638104,11.3314763 C42.0638104,7.49582173 45.1777575,4.71309192 49.0319052,4.71309192 C52.8860529,4.71309192 56,7.49582173 56,11.3314763 C56,15.1922006 52.8860529,18 49.0319052,18 C45.1777575,18 42.0638104,15.1922006 42.0638104,11.3314763 Z M44.5907019,11.3314763 C44.5907019,13.9888579 46.6071103,15.8941504 49.0319052,15.8941504 C51.4822242,15.8941504 53.4731085,13.9888579 53.4731085,11.3314763 C53.4731085,8.69916435 51.4822242,6.8189415 49.0319052,6.8189415 C46.6071103,6.8189415 44.5907019,8.69916435 44.5907019,11.3314763 Z" id="Ditto" fill="#333F48"></path>
                <g id="Ditto-logo-Copy" transform="translate(42.000000, 3.000000)">
                    <g id="Group-3" fill="#E4002B">
                        <path d="M0.000118238324,7.95619356 C-0.0229005278,12.3752663 3.31799556,15.9764521 7.46005055,15.9998768 C11.6034284,16.0241481 14.9784558,12.4604981 14.9998871,8.04198984 C15.0223767,3.62348158 11.6828035,0.0234246414 7.54048394,0 L7.49867974,0 C3.3751456,0 0.0223432539,3.55348988 0.000118238324,7.95619356" id="Fill-1"></path>
                    </g>
                    <path d="M10.2065984,7.50982579 L10.2065984,12.0034043 L4.90369803,12.0034043 L4.90369803,7.50982579 L3.50869565,7.50952783 L7.55586463,3.32255319 L11.6021739,7.50952783 L10.2065984,7.50982579 Z M12.7462718,6.92338105 L12.7462718,6.92278559 L7.99379167,1.92869856 C7.87044959,1.78906419 7.69489177,1.70212766 7.50014112,1.70212766 L7.49929438,1.70212766 C7.30482599,1.70212766 7.12898591,1.78906419 7.00649058,1.92869856 L2.25316366,6.92278559 L2.25316366,6.92338105 C2.06970291,7.11898825 1.95652174,7.38753878 1.95652174,7.68437345 C1.95652174,8.28072234 2.41404463,8.76572102 2.97910374,8.76720966 L3.63363525,8.76631647 C3.63363525,8.76631647 3.63250626,12.557583 3.63250626,12.5662171 C3.63250626,12.956836 3.93084166,13.2733207 4.29973889,13.2765957 L10.6999789,13.2765957 C11.0691583,13.2733207 11.3669292,12.956836 11.3669292,12.5662171 C11.3669292,12.557583 11.365518,8.76631647 11.365518,8.76631647 L12.0203318,8.76720966 C12.5856731,8.76572102 13.0434783,8.28072234 13.0434783,7.68437345 C13.0434783,7.38753878 12.9300148,7.11898825 12.7462718,6.92338105 Z" id="Fill-4" fill="#FEFEFE"></path>
                    <path d="M7.2325632,8.9482161 L6.95652174,9.79873491 L8.04347826,9.79873491 L7.78915221,9.01512403 C7.94071959,8.92368433 8.04347826,8.74646767 8.04347826,8.54284071 C8.04347826,8.24557877 7.82448711,8.00460035 7.55434783,8.00460035 C7.28420855,8.00460035 7.06521739,8.24557877 7.06521739,8.54284071 C7.06521739,8.70452211 7.13000144,8.84955318 7.2325632,8.9482161 Z M7.5,11.2340426 C7.45584233,11.2340426 7.4184783,11.2167554 7.38790763,11.1821809 L5.79823365,9.44769504 C5.78124998,9.43232856 5.75789737,9.40735815 5.72817598,9.37278366 C5.69845443,9.33820917 5.65132465,9.27530291 5.58678663,9.18406471 C5.52224861,9.09282652 5.46450409,8.9991873 5.41355291,8.90314723 C5.36260189,8.80710699 5.31717052,8.6908984 5.2772588,8.55452128 C5.23734709,8.41814415 5.2173913,8.28560874 5.2173913,8.15691486 C5.2173913,7.73433804 5.32523772,7.40395975 5.5409307,7.16578018 C5.75662367,6.92760043 6.05468748,6.80851064 6.43512226,6.80851064 C6.54042113,6.80851064 6.64784313,6.82915916 6.75738796,6.87045656 C6.86693278,6.91175378 6.96883498,6.96745714 7.06309439,7.03756646 C7.15735396,7.10767579 7.23845109,7.17346324 7.30638593,7.23492899 C7.37432063,7.29639474 7.43885865,7.36170202 7.5,7.43085101 C7.56114135,7.36170202 7.62567937,7.29639474 7.69361407,7.23492899 C7.76154891,7.17346324 7.84264604,7.10767579 7.93690561,7.03756646 C8.03116502,6.96745714 8.13306722,6.91175378 8.24261204,6.87045656 C8.35215687,6.82915916 8.45957887,6.80851064 8.56487774,6.80851064 C8.94531252,6.80851064 9.24337633,6.92760043 9.4590693,7.16578018 C9.67476228,7.40395975 9.7826087,7.73433804 9.7826087,8.15691486 C9.7826087,8.58141253 9.58814535,9.01359344 9.1992188,9.45345742 L7.61209237,11.1821809 C7.5815217,11.2167554 7.54415767,11.2340426 7.5,11.2340426 Z" id="Combined-Shape" fill="#FFFFFF" fill-rule="nonzero"></path>
                </g>
            </g>
        </g>
    </g>
</svg>