<?xml version="1.0" encoding="UTF-8"?>
<svg width="23px" height="18px" viewBox="0 0 23 18" version="1.1" xmlns="http://www.w3.org/2000/svg" xmlns:xlink="http://www.w3.org/1999/xlink">
    <!-- Generator: Sketch 47.1 (45422) - http://www.bohemiancoding.com/sketch -->
    <title>icon / people</title>
    <desc>Created with Sketch.</desc>
    <defs></defs>
    <g id="Symbols" stroke="none" stroke-width="1" fill="none" fill-rule="evenodd">
        <g id="Property-Cards-/-SPACELY_SRP_Web" transform="translate(-137.000000, -500.000000)" fill="#697684">
            <g id="Group-2" transform="translate(0.000000, 396.000000)">
                <g id="Group" transform="translate(32.000000, 102.000000)">
                    <g id="icon-/-people" transform="translate(105.000000, 2.000000)">
                        <g id="Stroke-2439-Copy">
                            <path d="M14,17.3817455 C13.9999998,16.6720911 13.9999998,16.6720911 13.9999998,16.2187069 C13.9999998,15.9570786 13.9999998,15.9570786 13.9999999,15.6462065 C14,15.1417901 14,15.1417901 14,14.3278282 C14,13.2841672 12.1466791,11.9017805 9.29987562,10.8328121 L9.69843515,11.4123987 L9.69843515,9.15419451 L9.49864537,9.61135978 C9.65690037,9.46565969 9.8691201,9.21244069 10.075858,8.85307964 C10.4152739,8.26309192 10.6191239,7.57542432 10.6191239,6.80107773 L10.0077421,6.80107773 L10.0077421,7.41933158 C11.19303,7.41933158 11.4658052,4.9604455 10.2792979,4.36561866 L10.0077421,4.9195394 L10.6191239,4.9195394 C10.6191239,4.9594217 10.670227,4.73665333 10.6979386,4.60069628 C10.8974167,3.62202594 10.8429673,2.66051657 10.3378564,1.61437395 C9.28100844,-0.574479238 4.76928514,-0.469932129 3.86641742,1.51887485 C3.26585568,2.51173619 3.15983914,3.50129131 3.32729403,4.59292683 C3.31407964,4.50678247 3.38087604,4.92182742 3.38087604,4.9195394 L3.99225777,4.9195394 L3.720702,4.36561866 C2.5341947,4.9604455 2.80696988,7.41933158 3.99225777,7.41933158 L3.99225777,6.80107773 L3.38087604,6.80107773 C3.38087604,7.58160729 3.58857465,8.25303599 3.93601597,8.80809124 C4.15012941,9.15014838 4.37148599,9.38312599 4.53955038,9.51421171 L4.30156476,9.02465967 L4.30156476,11.4123987 L4.70012428,10.8328121 C1.80212272,11.9210053 -1.45150452e-08,13.2473054 1.73130506e-08,14.327828 C3.90141809e-08,15.7945015 3.90141809e-08,15.7945015 1.70036114e-08,16.8483289 C4.25090281e-09,17.2810198 4.25090281e-09,17.2810198 0,17.3817457 C-1.44101943e-08,17.7231979 0.273724893,17.9999996 0.611381698,17.9999996 L6.99999991,18 L13.3886183,17.9999996 C13.7262752,17.9999996 14.0000001,17.7231978 14,17.3817455 L14,17.3817455 Z M12.7772365,17.381746 L13.3886182,16.7634919 L6.99999991,16.7634923 L0.611381776,16.7634919 L1.22276347,17.3817458 C1.22276348,17.2810198 1.22276348,17.2810198 1.22276349,16.8483289 C1.22276351,15.7945015 1.22276351,15.7945015 1.22276349,14.327828 C1.22276348,13.9910844 2.7028665,12.9017797 5.12576871,11.9919852 C5.36535765,11.9020201 5.52432823,11.6708446 5.52432823,11.4123987 L5.52432823,9.02465967 C5.52432823,8.83299362 5.43642263,8.65216602 5.28634261,8.53510763 C5.22423482,8.48666522 5.10033313,8.3562588 4.9691883,8.14674824 C4.74119917,7.78252397 4.60363951,7.33783393 4.60363951,6.80107773 C4.60363951,6.45962556 4.32991458,6.18282388 3.99225777,6.18282388 C4.18965195,6.18282388 4.25409177,6.24312732 4.2694193,6.27264778 C4.22844154,6.19372557 4.19207811,6.06674932 4.1772001,5.93263402 C4.14792691,5.66875574 4.20271805,5.5040889 4.26381355,5.47346015 C4.47196278,5.36910954 4.60363951,5.15447477 4.60363951,4.9195394 C4.60363951,4.83998476 4.59514203,4.76928485 4.5766978,4.6546801 C4.55680491,4.53542537 4.54507408,4.46510504 4.53560614,4.40338371 C4.40831132,3.57355104 4.48423455,2.86488598 4.94471306,2.09757022 C5.45338926,0.98687558 8.63851268,0.913068872 9.23907182,2.15689568 C9.61047937,2.9261233 9.64968369,3.61842326 9.50034973,4.35107861 C9.51932149,4.25800024 9.3963604,4.79401105 9.3963604,4.9195394 C9.3963604,5.15447477 9.52803712,5.36910954 9.73618636,5.47346015 C9.79728186,5.5040889 9.852073,5.66875574 9.8227998,5.93263402 C9.8079218,6.06674932 9.77155837,6.19372557 9.73058061,6.27264778 C9.74590813,6.24312732 9.81034796,6.18282388 10.0077421,6.18282388 C9.67008532,6.18282388 9.3963604,6.45962556 9.3963604,6.80107773 C9.3963604,7.3440169 9.25495212,7.82104361 9.01893751,8.23129468 C8.88041717,8.4720769 8.74737862,8.6308175 8.67546145,8.69702924 C8.54820473,8.81419025 8.47567167,8.98016269 8.47567167,9.15419451 L8.47567167,11.4123987 C8.47567167,11.6708446 8.63464225,11.9020201 8.87423119,11.9919852 C10.2136771,12.4949442 11.2767783,13.0516769 12.0028245,13.5932327 C12.5129382,13.973725 12.7772365,14.30326 12.7772365,14.3278282 C12.7772365,15.14179 12.7772365,15.14179 12.7772364,15.6462063 C12.7772364,15.9570784 12.7772364,15.9570784 12.7772363,16.2187067 C12.7772363,16.6720913 12.7772363,16.6720913 12.7772365,17.381746 L12.7772365,17.381746 Z" id="Shape" fill-rule="nonzero"></path>
                            <path d="M19.4161539,18 L22.3746986,17.9999997 C22.7200431,17.9999996 23.0000001,17.7269492 23,17.3901246 C22.9999998,16.8067608 22.9999998,16.8067608 22.9999998,16.4340611 C22.9999999,16.2189924 22.9999999,16.2189924 22.9999999,15.9634433 C23,15.5487931 23,15.5487931 23,14.8796844 C23,14.0097802 21.1417457,12.8997412 18.4657456,11.9126454 L18.8698489,12.4830865 L18.8698489,10.6267537 L18.6697196,11.073951 C18.8096727,10.9473753 18.9940624,10.7312463 19.1727395,10.4261438 C19.464915,9.92723589 19.6402904,9.34606716 19.6402904,8.69239909 L19.0149889,8.69239909 L19.0149889,9.3022739 C20.1383848,9.3022739 20.3829946,7.13619999 19.2968334,6.60129059 L19.0149889,7.14570049 L19.6402904,7.14570049 C19.6402904,7.19063699 19.677669,7.03057251 19.7043528,6.9019688 C19.8750692,6.0791915 19.8283683,5.26906744 19.3953545,4.38807614 C18.4701018,2.50559633 14.5643008,2.59450528 13.7707532,4.31165148 C13.2599031,5.14015991 13.1689376,5.97424148 13.3121142,6.89113241 C13.3051907,6.84679482 13.3558703,7.15613809 13.3558703,7.14570049 L13.9811718,7.14570049 L13.6993273,6.60129059 C12.6131661,7.13619999 12.8577759,9.3022739 13.9811718,9.3022739 L13.9811718,8.69239909 L13.3558703,8.69239909 C13.3558703,9.35209788 13.5350703,9.92117369 13.8353006,10.3923409 C14.0214809,10.6845234 14.2152535,10.884869 14.3653273,10.9998564 L14.1263118,10.520271 L14.1263118,11.7715659 C14.1263118,12.1083904 14.4062688,12.3814407 14.7516133,12.3814407 C15.0969577,12.3814407 15.3769148,12.1083904 15.3769148,11.7715659 L15.3769148,10.520271 C15.3769148,10.3331074 15.2888014,10.1563077 15.1378993,10.0406856 C15.0953627,10.0080938 15.0002197,9.90972347 14.8974844,9.74849554 C14.7161888,9.46397883 14.6064733,9.11556107 14.6064733,8.69239909 C14.6064733,8.35557454 14.3265163,8.08252428 13.9811718,8.08252428 C14.2036011,8.08252428 14.2860832,8.15834949 14.3159312,8.21482132 C14.2874533,8.16094158 14.2602685,8.06769151 14.249055,7.96839371 C14.2286139,7.78738312 14.2612708,7.69097 14.2630162,7.6901104 C14.4736476,7.58637932 14.6064733,7.37583878 14.6064733,7.14570049 C14.6064733,7.07379818 14.5989629,7.01241427 14.5827389,6.91338447 C14.5659583,6.81454437 14.5562715,6.75750163 14.5484604,6.70747988 C14.4449875,6.04484829 14.5062711,5.48292599 14.878001,4.87442945 C15.2709564,4.03373335 17.8059532,3.97602844 18.2676352,4.91534676 C18.5681008,5.52666129 18.5997702,6.07603362 18.4785973,6.66003343 C18.4979675,6.56667769 18.3896874,7.03035957 18.3896874,7.14570049 C18.3896874,7.37583878 18.5225131,7.58637932 18.7331444,7.6901104 C18.7348899,7.69097 18.7675468,7.78738312 18.7471057,7.96839371 C18.7358922,8.06769151 18.7087074,8.16094158 18.6802295,8.21482132 C18.7100774,8.15834949 18.7925596,8.08252428 19.0149889,8.08252428 C18.6696444,8.08252428 18.3896874,8.35557454 18.3896874,8.69239909 C18.3896874,9.12159179 18.2761472,9.49784765 18.0867968,9.82117537 C17.9765584,10.0094143 17.8720326,10.1319323 17.8193752,10.1795565 C17.6917686,10.2949659 17.6192459,10.4570209 17.6192459,10.6267537 L17.6192459,12.4830865 C17.6192459,12.7366841 17.7801489,12.9638184 18.0233492,13.0535276 C19.1850281,13.4820359 20.2005885,13.9530447 20.9268744,14.3868958 C21.2496622,14.579715 21.4996293,14.7564405 21.6579493,14.8997412 C21.7313719,14.9661984 21.749397,14.9925304 21.749397,14.8796844 C21.749397,15.548793 21.749397,15.548793 21.7493969,15.9634431 C21.7493969,16.2189922 21.7493969,16.2189922 21.7493968,16.434061 C21.7493968,16.806761 21.7493968,16.806761 21.749397,17.3901251 L22.3746984,16.78025 L19.4161539,16.7802504 L16.4576096,16.78025 C16.1122652,16.78025 15.8323081,17.0533002 15.8323081,17.3901248 C15.832308,17.7269493 16.112265,17.9999996 16.4576095,17.9999997 L19.4161539,18 Z" id="Shape" fill-rule="nonzero"></path>
                        </g>
                    </g>
                </g>
            </g>
        </g>
    </g>
</svg>